<svg version="1.1" id="Layer_1" xmlns="http://www.w3.org/2000/svg" xmlns:xlink="http://www.w3.org/1999/xlink" 
	 viewBox="0 0 512 512" xml:space="preserve"><path xmlns="http://www.w3.org/2000/svg" style="fill:#08AA6E;" d="M88.589,233.374H26.857c-8.155,0-14.765,6.61-14.765,14.764c0,8.155,6.61,14.766,14.765,14.766&#10;&#9;c38.188,0,38.188,18.331,76.376,18.331s38.187-18.331,76.376-18.331c38.19,0,38.19,18.331,76.38,18.331&#10;&#9;c0.032,0,0.063-0.002,0.095-0.002s0.063,0.002,0.095,0.002c38.19,0,38.19-18.331,76.38-18.331c38.188,0,38.188,18.331,76.376,18.331&#10;&#9;s38.187-18.331,76.376-18.331c8.155,0,14.765-6.611,14.765-14.766c0-8.154-6.61-14.764-14.765-14.764H256.084H110.678"/></svg>