<svg version="1.1" id="Layer_1" xmlns="http://www.w3.org/2000/svg" xmlns:xlink="http://www.w3.org/1999/xlink" 
	 viewBox="0 0 512 512" xml:space="preserve"><path xmlns="http://www.w3.org/2000/svg" style="fill:#D53349;" d="M476.614,263.268c-29.73,2.547-32.642,17.967-67.679,17.967c-38.187,0-38.187-18.331-76.376-18.331&#10;&#9;c-38.189,0-38.189,18.331-76.38,18.331c-0.032,0-0.063-0.002-0.095-0.002s-0.063,0.002-0.095,0.002&#10;&#9;c-38.189,0-38.189-18.331-76.38-18.331c-38.189,0-38.189,18.331-76.376,18.331c-35.081,0-37.957-15.459-67.794-17.976&#10;&#9;c-15.782,2.551-27.836,16.233-27.836,32.736c0,18.318,14.85,33.168,33.168,33.168h430.456c18.318,0,33.168-14.85,33.168-33.168&#10;&#9;C504.396,279.51,492.37,265.841,476.614,263.268z"/></svg>